<svg aria-hidden="true" style="width:0;height:0;position:absolute;overflow:hidden" xmlns="http://www.w3.org/2000/svg"><defs><symbol id="icon-range" viewBox="0 0 146 32"><path d="M6.981 23.36c-1.004 0-1.863-.241-2.576-.722-.705-.489-1.282-1.161-1.73-2.016-.44-.863-.763-1.863-.971-2.999-.199-1.137-.299-2.352-.299-3.646s.1-2.51.299-3.646c.207-1.145.531-2.149.971-3.012.448-.871 1.025-1.551 1.73-2.041.713-.498 1.572-.747 2.576-.747s1.858.249 2.564.747c.713.489 1.29 1.17 1.73 2.041.44.863.763 1.867.971 3.012.207 1.137.311 2.352.311 3.646s-.104 2.51-.311 3.646c-.207 1.137-.531 2.136-.971 2.999-.44.855-1.016 1.527-1.73 2.016-.705.481-1.56.722-2.564.722zm0-1.867c.78 0 1.419-.286 1.916-.859.506-.572.884-1.419 1.132-2.539s.373-2.493.373-4.119c0-1.634-.124-3.012-.373-4.132s-.626-1.966-1.132-2.539c-.498-.581-1.137-.871-1.916-.871-.772 0-1.415.29-1.929.871-.506.572-.884 1.419-1.132 2.539s-.373 2.497-.373 4.132c0 1.634.124 3.012.373 4.132.249 1.112.626 1.954 1.132 2.526a2.486 2.486 0 0 0 1.929.859zm13.847-16.8v18.418h-2.116V6.995c-.066.091-.274.212-.622.361-.34.149-.763.295-1.269.436-.498.133-1.029.228-1.593.286V6.162a9.796 9.796 0 0 0 1.568-.386 7.753 7.753 0 0 0 1.269-.535c.348-.199.581-.382.697-.548h2.066zM35.556 16h71.111M124.315 23.36c-1.004 0-1.863-.241-2.576-.722-.705-.489-1.282-1.161-1.73-2.016-.44-.863-.763-1.863-.971-2.999-.199-1.137-.299-2.352-.299-3.646s.1-2.51.299-3.646c.207-1.145.531-2.149.971-3.012.448-.871 1.025-1.551 1.73-2.041.713-.498 1.572-.747 2.576-.747s1.858.249 2.564.747c.713.489 1.29 1.17 1.73 2.041.44.863.763 1.867.971 3.012.207 1.137.311 2.352.311 3.646s-.104 2.51-.311 3.646c-.207 1.137-.531 2.136-.971 2.999-.44.855-1.016 1.527-1.73 2.016-.705.481-1.56.722-2.564.722zm0-1.867c.78 0 1.419-.286 1.916-.859.506-.572.884-1.419 1.132-2.539s.373-2.493.373-4.119c0-1.634-.124-3.012-.373-4.132s-.626-1.966-1.132-2.539c-.498-.581-1.137-.871-1.916-.871-.772 0-1.415.29-1.929.871-.506.572-.884 1.419-1.132 2.539s-.373 2.497-.373 4.132c0 1.634.124 3.012.373 4.132.249 1.112.626 1.954 1.132 2.526a2.486 2.486 0 0 0 1.929.859zM142.841 6.61h-7.168l-.647 6.048c.025-.1.108-.232.249-.398a2.96 2.96 0 0 1 .647-.51c.291-.174.651-.319 1.083-.436s.938-.174 1.518-.174c1.51 0 2.655.539 3.435 1.618.788 1.079 1.182 2.501 1.182 4.268 0 1.361-.212 2.514-.635 3.46-.415.946-1.016 1.663-1.804 2.153-.788.481-1.742.722-2.862.722-.904 0-1.692-.133-2.364-.398a4.37 4.37 0 0 1-1.643-1.145 4.973 4.973 0 0 1-.958-1.717 7.116 7.116 0 0 1-.311-2.153V17.911h2.103V17.948c.008 1.253.291 2.157.846 2.713.564.556 1.348.834 2.352.834.647 0 1.203-.162 1.668-.485.473-.324.834-.813 1.083-1.468.257-.655.386-1.481.386-2.476 0-1.327-.245-2.335-.734-3.024-.481-.689-1.19-1.033-2.128-1.033-.606 0-1.137.12-1.593.361a3.738 3.738 0 0 0-1.132.859c-.29.34-.498.664-.622.971l-2.041-.523 1.132-9.918h8.96v1.854z"/></symbol><symbol id="icon-chevron-right" viewBox="0 0 32 32"><path d="m12 24 8-8-8-8"/></symbol><symbol id="icon-chevron-left" viewBox="0 0 32 32"><path d="m20 24-8-8 8-8"/></symbol><symbol id="icon-close" viewBox="0 0 24 24"><path d="M18 6 6 18M6 6l12 12" stroke="#141414" stroke-width="1.3" stroke-linecap="round" stroke-linejoin="round"/></symbol></defs></svg>